<svg xmlns="http://www.w3.org/2000/svg" width="65" height="52" viewBox="0 0 65 52">
  <path id="laptop-code-solid" d="M25.9,26.574a1.625,1.625,0,0,0,2.3,0l1.149-1.149a1.625,1.625,0,0,0,0-2.3L25.721,19.5l3.627-3.628a1.625,1.625,0,0,0,0-2.3L28.2,12.425a1.625,1.625,0,0,0-2.3,0L19.975,18.35a1.625,1.625,0,0,0,0,2.3Zm9.751-1.148L36.8,26.575a1.625,1.625,0,0,0,2.3,0l5.925-5.925a1.625,1.625,0,0,0,0-2.3L39.1,12.426a1.625,1.625,0,0,0-2.3,0l-1.149,1.149a1.625,1.625,0,0,0,0,2.3L39.279,19.5l-3.627,3.628A1.625,1.625,0,0,0,35.653,25.426ZM63.375,42.25H38.75a3.2,3.2,0,0,1-3.325,3.25H29.25a3.449,3.449,0,0,1-3.328-3.25H1.625A1.63,1.63,0,0,0,0,43.875V45.5A6.519,6.519,0,0,0,6.5,52h52A6.519,6.519,0,0,0,65,45.5V43.875A1.63,1.63,0,0,0,63.375,42.25ZM58.5,4.875A4.889,4.889,0,0,0,53.625,0H11.375A4.889,4.889,0,0,0,6.5,4.875V39h52ZM52,32.5H13V6.5H52Z" fill="#de3b4e"/>
</svg>
