<svg xmlns="http://www.w3.org/2000/svg" width="120.083" height="131" viewBox="0 0 120.083 131">
  <g id="Report_Icon" data-name="Report Icon" transform="translate(-68 -1296)">
    <path id="Subtraction_5" data-name="Subtraction 5" d="M-1256,964h-82a5.006,5.006,0,0,1-5-5V846a5.005,5.005,0,0,1,5-5h82a5.005,5.005,0,0,1,5,5V959A5.006,5.006,0,0,1-1256,964Zm-72.53-94.615a5.006,5.006,0,0,0-5,5v.813a5.006,5.006,0,0,0,5,5h29.236a5.006,5.006,0,0,0,5-5v-.813a5.006,5.006,0,0,0-5-5Zm0-17.572a5.006,5.006,0,0,0-5,5v.813a5.006,5.006,0,0,0,5,5h44.118a5.006,5.006,0,0,0,5-5v-.813a5.006,5.006,0,0,0-5-5Z" transform="translate(1411 455)" fill="#2c0f2b"/>
    <g id="thumbs-up-solid_1_" data-name="thumbs-up-solid(1)" transform="translate(127 1365.917)" fill="#de3b4e">
      <path d="M 37.99210357666016 58.58353424072266 L 37.99166488647461 58.58353424072266 L 37.9912223815918 58.58353424072266 L 37.67958450317383 58.58342361450195 C 31.85956382751465 58.58136367797852 27.06715393066406 56.44926452636719 23.56788444519043 54.89247512817383 C 22.53758430480957 54.43410491943359 20.12477493286133 53.36067581176758 18.77085494995117 53.33579635620117 C 17.94615745544434 53.32065200805664 17.16423416137695 53.04519271850586 16.52088356018066 52.55060958862305 L 16.52088356018066 53.45461654663086 C 16.52088356018066 56.28271484375 14.22006416320801 58.58353424072266 11.39196395874023 58.58353424072266 L 2.628914356231689 58.58353424072266 C -0.1991757601499557 58.58353424072266 -2.499995708465576 56.28271484375 -2.499995708465576 53.45461654663086 L -2.499995708465576 27.16546440124512 C -2.499995708465576 24.33736610412598 -0.1991757601499557 22.03654479980469 2.628914356231689 22.03654479980469 L 11.39196395874023 22.03654479980469 C 13.10377216339111 22.03654479980469 14.62252998352051 22.87967872619629 15.55467987060547 24.17228507995605 C 15.72060966491699 23.88942718505859 15.92305660247803 23.62725639343262 16.15826416015625 23.39473533630371 C 18.28228378295898 21.2959156036377 19.80424499511719 19.07685470581055 21.27610397338867 16.93086433410645 C 22.64913368225098 14.928955078125 24.06891441345215 12.85888481140137 25.90829467773438 11.01639556884766 C 27.03290367126465 9.889655113220215 27.51636505126953 7.877235412597656 28.02821350097656 5.746665000915527 L 28.03845405578613 5.704065322875977 C 28.30836486816406 4.58089542388916 28.71626472473145 2.883555173873901 29.40256500244141 1.354235172271729 C 29.85140419006348 0.3540351986885071 30.35260391235352 -0.4274247884750366 30.93478393554688 -1.03478479385376 C 32.09558486938477 -2.245794773101807 33.3380241394043 -2.49999475479126 34.1759033203125 -2.49999475479126 C 36.67596435546875 -2.49999475479126 38.89712524414063 -1.829334735870361 40.5992546081543 -0.5605047941207886 C 41.84991455078125 0.371775209903717 42.82193374633789 1.612375259399414 43.48831558227539 3.126835107803345 C 44.20119476318359 4.746955394744873 44.56265258789063 6.696765422821045 44.56265258789063 8.922104835510254 C 44.56265258789063 12.2995433807373 43.32997512817383 14.77721214294434 42.26714324951172 16.77871513366699 L 49.56010437011719 16.77871513366699 C 51.9696044921875 16.77871513366699 54.24173355102539 17.72709465026855 55.95796585083008 19.44916534423828 C 57.61481475830078 21.11164474487305 58.57174301147461 23.36441612243652 58.58339309692383 25.62981605529785 C 58.59317779541016 27.71730613708496 57.90909957885742 29.87260055541992 56.74323272705078 31.5647144317627 C 57.07170867919922 32.86065673828125 57.17874526977539 34.26139068603516 57.04526519775391 35.6341438293457 C 56.88523101806641 37.27993392944336 56.39615249633789 38.83345413208008 55.61678695678711 40.19218826293945 C 55.89693450927734 41.65220642089844 55.85418319702148 43.21531677246094 55.48518371582031 44.77996444702148 C 55.1516227722168 46.1943244934082 54.56416320800781 47.51755142211914 53.79163360595703 48.61775970458984 C 54.11388397216797 51.24224472045898 53.30712890625 53.10407638549805 52.50647354125977 54.25437545776367 C 51.1128044128418 56.25673675537109 48.85144424438477 57.52067565917969 45.59318542480469 58.11837387084961 C 43.05741500854492 58.58353424072266 40.24883270263672 58.58353424072266 37.99210357666016 58.58353424072266 Z" stroke="none"/>
      <path d="M 34.1759033203125 0 C 31.96508979797363 0 30.9461727142334 4.304080963134766 30.45905494689941 6.330646514892578 C 29.88890266418457 8.703895568847656 29.29915046691895 11.15798950195313 27.67754936218262 12.78265762329102 C 24.12096214294434 16.34528350830078 22.25507736206055 20.88487243652344 17.91584396362305 25.17263603210449 C 17.66652679443359 25.41909408569336 17.52610397338867 25.75548362731934 17.52610397338867 26.10600090026855 L 17.52610397338867 49.52197647094727 C 17.52610397338867 50.23846054077148 18.10040664672852 50.82307052612305 18.81679534912109 50.83621215820313 C 20.55078506469727 50.86808395385742 22.83618545532227 51.83070755004883 24.58407974243164 52.60831832885742 C 28.0623607635498 54.15576553344727 32.39119720458984 56.0815544128418 37.68046569824219 56.08342361450195 L 37.99210357666016 56.08353042602539 C 42.67781829833984 56.08353042602539 48.21891403198242 56.03829574584961 50.45458602905273 52.82618713378906 C 51.37383270263672 51.5054817199707 51.59883117675781 49.86494064331055 51.12803268432617 47.93728256225586 C 52.91492462158203 46.06932830810547 53.87338638305664 42.58502197265625 52.92247772216797 39.74854278564453 C 54.84433746337891 37.18184661865234 55.01947784423828 33.59994125366211 53.94206619262695 31.04364776611328 L 53.9541130065918 31.03161239624023 C 55.25685501098633 29.72284698486328 56.09263229370117 27.60755348205566 56.08341979980469 25.64266014099121 C 56.06633758544922 22.31795501708984 53.21833801269531 19.27871704101563 49.56010437011719 19.27871704101563 L 38.41754913330078 19.27871704101563 C 39.21794891357422 16.17440032958984 42.06265640258789 13.56827163696289 42.06265640258789 8.922096252441406 C 42.06265640258789 0.8763046264648438 36.8048210144043 0 34.1759033203125 0 M 2.628913879394531 24.53654098510742 C 1.176986694335938 24.53654098510742 -3.814697265625e-06 25.71352958679199 -3.814697265625e-06 27.16545867919922 L -3.814697265625e-06 53.45461273193359 C -3.814697265625e-06 54.90653991699219 1.176986694335938 56.08353042602539 2.628913879394531 56.08353042602539 L 11.39196014404297 56.08353042602539 C 12.84389114379883 56.08353042602539 14.02087783813477 54.90653991699219 14.02087783813477 53.45461273193359 L 14.02087783813477 27.16545867919922 C 14.02087783813477 25.71352958679199 12.84389114379883 24.53654098510742 11.39196014404297 24.53654098510742 L 2.628913879394531 24.53654098510742 M 7.010444641113281 51.70199966430664 C 5.558513641357422 51.70199966430664 4.381526947021484 50.5250129699707 4.381526947021484 49.07309341430664 C 4.381526947021484 47.62115478515625 5.558513641357422 46.44417572021484 7.010444641113281 46.44417572021484 C 8.462371826171875 46.44417572021484 9.639362335205078 47.62115478515625 9.639362335205078 49.07309341430664 C 9.639362335205078 50.5250129699707 8.462371826171875 51.70199966430664 7.010444641113281 51.70199966430664 M 34.1759033203125 -5 C 37.21847915649414 -5 39.95630264282227 -4.157951354980469 42.0933952331543 -2.564891815185547 C 44.3603515625 -0.8750343322753906 47.06265640258789 2.489589691162109 47.06265640258789 8.922096252441406 C 47.06265640258789 10.98234939575195 46.67550659179688 12.75244903564453 46.14377212524414 14.27871704101563 L 49.56010437011719 14.27871704101563 C 52.63897323608398 14.27871704101563 55.53997421264648 15.48821258544922 57.72872543334961 17.68439865112305 C 58.76270294189453 18.72189331054688 59.58005523681641 19.92324829101563 60.15806579589844 21.25510787963867 C 60.76435089111328 22.65211868286133 61.07565689086914 24.11965942382813 61.08335113525391 25.61696434020996 C 61.09084320068359 27.21404838562012 60.77186584472656 28.87433052062988 60.16091537475586 30.42056465148926 C 59.94133758544922 30.97629547119141 59.68579864501953 31.51277542114258 59.39844512939453 32.02359771728516 C 59.61321258544922 33.27397918701172 59.66029739379883 34.57233428955078 59.53352737426758 35.87609481811523 C 59.36984634399414 37.5594482421875 58.91979217529297 39.16859436035156 58.211669921875 40.62905502319336 C 58.39072418212891 42.1632080078125 58.2938232421875 43.76203155517578 57.91843032836914 45.35380172729492 C 57.590087890625 46.74607086181641 57.05416870117188 48.07323837280273 56.3551139831543 49.25081253051758 C 56.49250411987305 52.16067504882813 55.5197868347168 54.3012809753418 54.55838394165039 55.68255233764648 C 53.55012512207031 57.13117599487305 52.17411422729492 58.30037689208984 50.46860885620117 59.15764617919922 C 49.18673706054688 59.80197525024414 47.73952484130859 60.26635360717773 46.04425430297852 60.57734298706055 C 43.28482055664063 61.08353042602539 40.35015106201172 61.08353042602539 37.99210357666016 61.08353042602539 L 37.67877197265625 61.08342361450195 C 31.32817268371582 61.0811767578125 26.25556182861328 58.82442474365234 22.55168914794922 57.1766242980957 C 21.7543830871582 56.82190704345703 20.90571594238281 56.45589447021484 20.10153961181641 56.18185806274414 C 19.12448883056641 55.84891891479492 18.74045562744141 55.83575439453125 18.72458648681641 55.83536529541016 C 18.69676208496094 55.83485412597656 18.66902542114258 55.83416748046875 18.64126205444336 55.83329772949219 C 17.63938903808594 58.87857055664063 14.76823043823242 61.08353042602539 11.39196014404297 61.08353042602539 L 2.628913879394531 61.08353042602539 C -1.577686309814453 61.08353042602539 -5.000003814697266 57.66121292114258 -5.000003814697266 53.45461273193359 L -5.000003814697266 27.16545867919922 C -5.000003814697266 22.95885848999023 -1.577686309814453 19.53654098510742 2.628913879394531 19.53654098510742 L 11.39196014404297 19.53654098510742 C 12.83515548706055 19.53654098510742 14.18609619140625 19.93939590454102 15.33813858032227 20.63850021362305 C 16.82276916503906 19.00386047363281 17.99042129516602 17.30145263671875 19.21443176269531 15.51682281494141 C 20.65138626098633 13.42171859741211 22.13725662231445 11.25528335571289 24.1390209197998 9.250118255615234 C 24.76642036437988 8.621528625488281 25.2271728515625 6.703681945800781 25.59738540649414 5.162670135498047 L 25.6076545715332 5.119930267333984 C 25.88153839111328 3.980236053466797 26.33993721008301 2.072731018066406 27.12169075012207 0.3306961059570313 C 29.20307922363281 -4.307456970214844 32.43477249145508 -5 34.1759033203125 -5 Z" stroke="none" fill="#fafaff"/>
    </g>
  </g>
</svg>
