<svg xmlns="http://www.w3.org/2000/svg" width="87.068" height="116.091" viewBox="0 0 87.068 116.091">
  <path id="clipboard-regular" d="M76.184,14.511H58.045a14.511,14.511,0,1,0-29.023,0H10.883A10.886,10.886,0,0,0,0,25.395v79.812a10.886,10.886,0,0,0,10.883,10.883h65.3a10.886,10.886,0,0,0,10.883-10.883V25.395A10.886,10.886,0,0,0,76.184,14.511ZM43.534,9.07a5.442,5.442,0,1,1-5.442,5.442A5.429,5.429,0,0,1,43.534,9.07Zm32.65,94.777a1.364,1.364,0,0,1-1.36,1.36H12.244a1.364,1.364,0,0,1-1.36-1.36V26.755a1.364,1.364,0,0,1,1.36-1.36h9.523v8.163a2.729,2.729,0,0,0,2.721,2.721H62.58A2.729,2.729,0,0,0,65.3,33.557V25.395h9.523a1.364,1.364,0,0,1,1.36,1.36Z" fill="#2c0f2b"/>
</svg>
