<svg xmlns="http://www.w3.org/2000/svg" width="142.209" height="72.047" viewBox="0 0 142.209 72.047">
  <path id="Union_2" data-name="Union 2" d="M561.641,1107.047a18.513,18.513,0,0,1-9.3-2.485H508.752a20.758,20.758,0,0,1-6.889-40.337c-.014-.389-.029-.778-.029-1.166a23.058,23.058,0,0,1,41.718-13.545,13.894,13.894,0,0,1,22.683,3.18,20.661,20.661,0,0,1,27.536,7.727,12.324,12.324,0,0,1,19.134,10.117,12.14,12.14,0,0,1-.821,4.387,16.21,16.21,0,0,1-3.28,32.123Z" transform="translate(-485.5 -1037.5)" fill="#2c0f2b" stroke="#fafaff" stroke-width="5"/>
</svg>
