<svg xmlns="http://www.w3.org/2000/svg" width="65" height="50.556" viewBox="0 0 65 50.556">
  <g id="Social_Chat_Icon" data-name="Social Chat Icon" transform="translate(-116 -1639)">
    <path id="comments-solid" d="M46.944,50.056C46.944,40.08,36.438,32,23.472,32S0,40.08,0,50.056A15.309,15.309,0,0,0,4.288,60.438a25.4,25.4,0,0,1-4.04,6.15.9.9,0,0,0-.169.982.884.884,0,0,0,.824.542,19.87,19.87,0,0,0,10.01-2.821,28.714,28.714,0,0,0,12.56,2.821C36.438,68.111,46.944,60.031,46.944,50.056ZM60.712,74.882A15.288,15.288,0,0,0,65,64.5c0-7.549-6.037-14.016-14.591-16.713a16.77,16.77,0,0,1,.147,2.268c0,11.951-12.154,21.667-27.083,21.667a33.834,33.834,0,0,1-3.577-.214C23.45,78,31.8,82.556,41.528,82.556a28.557,28.557,0,0,0,12.56-2.821A19.869,19.869,0,0,0,64.1,82.556a.89.89,0,0,0,.824-.542.9.9,0,0,0-.169-.982A25.13,25.13,0,0,1,60.712,74.882Z" transform="translate(116 1607)" fill="#2c0f2b"/>
    <g id="thumbs-up-solid" transform="translate(127 1642)" fill="#de3b4e">
      <path d="M 16.59679412841797 25.5000171661377 L 16.59661483764648 25.5000171661377 L 16.5964241027832 25.5000171661377 L 16.46029472351074 25.49996757507324 C 13.93741416931152 25.49908828735352 11.93889427185059 24.60995674133301 10.33304405212402 23.89553833007813 C 9.877843856811523 23.69302749633789 8.811843872070313 23.21877670288086 8.201694488525391 23.20755767822266 C 7.783477783203125 23.19988632202148 7.403520584106445 23.02590942382813 7.125004291534424 22.74996757507324 L 7.125004291534424 23.35157775878906 C 7.125004291534424 24.53622817993164 6.161214351654053 25.5000171661377 4.976563930511475 25.5000171661377 L 1.148434162139893 25.5000171661377 C -0.03621586784720421 25.5000171661377 -0.9999958872795105 24.53622817993164 -0.9999958872795105 23.35157775878906 L -0.9999958872795105 11.86719799041748 C -0.9999958872795105 10.6825475692749 -0.03621586784720421 9.718757629394531 1.148434162139893 9.718757629394531 L 4.976563930511475 9.718757629394531 C 5.747844696044922 9.718757629394531 6.425559997558594 10.12737655639648 6.804574489593506 10.73941421508789 C 6.882838726043701 10.57143878936768 6.990444660186768 10.41699314117432 7.123464107513428 10.28548717498779 C 8.057594299316406 9.36243724822998 8.724984169006348 8.389368057250977 9.370404243469238 7.448327541351318 C 9.967864036560059 6.577227592468262 10.58565425872803 5.676477432250977 11.38320446014404 4.877577781677246 C 11.89280414581299 4.36701774597168 12.10694408416748 3.475647687911987 12.33366394042969 2.531947612762451 L 12.33813381195068 2.513307571411133 C 12.45525455474854 2.02598762512207 12.63223457336426 1.289527654647827 12.92852401733398 0.6292876005172729 C 13.53283405303955 -0.7173323631286621 14.35032367706299 -1.000002384185791 14.92969417572021 -1.000002384185791 C 16.00185394287109 -1.000002384185791 16.953125 -0.7133323550224304 17.68067359924316 -0.1710023730993271 C 18.80495452880859 0.6670776009559631 19.37501335144043 2.03595757484436 19.37501335144043 3.897607564926147 C 19.37501335144043 5.426157474517822 18.78552436828613 6.531757831573486 18.31186485290527 7.420127391815186 C 18.31154632568359 7.420722484588623 18.31124877929688 7.421282768249512 18.3109302520752 7.421877861022949 L 21.65026473999023 7.421877861022949 C 22.67818450927734 7.421877861022949 23.6475944519043 7.826557636260986 24.37991333007813 8.561367988586426 C 25.08675384521484 9.270617485046387 25.49499320983887 10.23119735717773 25.49995422363281 11.19681739807129 C 25.50419998168945 12.10419940948486 25.20244789123535 13.04110431671143 24.68955039978027 13.76967334747314 C 25.02364730834961 15.02471733093262 24.84185409545898 16.43375968933105 24.19796752929688 17.54214859008789 C 24.44193840026855 18.7826042175293 24.13505935668945 20.19737815856934 23.40302848815918 21.2159252166748 C 23.55135726928711 22.3520622253418 23.20535087585449 23.15470504760742 22.86177444458008 23.6483268737793 C 21.57296371459961 25.5000171661377 18.81381416320801 25.5000171661377 16.59679412841797 25.5000171661377 Z M 3.062504053115845 21.28907775878906 C 2.980654239654541 21.28907775878906 2.914064168930054 21.35566711425781 2.914064168930054 21.4375171661377 C 2.914064168930054 21.51935768127441 2.980654239654541 21.58594703674316 3.062504053115845 21.58594703674316 C 3.144354104995728 21.58594703674316 3.210944175720215 21.51935768127441 3.210944175720215 21.4375171661377 C 3.210944175720215 21.35566711425781 3.144354104995728 21.28907775878906 3.062504053115845 21.28907775878906 Z" stroke="none"/>
      <path d="M 14.92969417572021 -1.9073486328125e-06 C 13.96390438079834 -1.9073486328125e-06 13.51879405975342 1.880228042602539 13.30599403381348 2.765537261962891 C 13.05692386627197 3.802288055419922 12.79929447174072 4.874357223510742 12.09090423583984 5.584087371826172 C 10.53720378875732 7.140417098999023 9.722104072570801 9.123527526855469 7.826513290405273 10.99662780761719 C 7.71760368347168 11.10429763793945 7.656253814697266 11.25124740600586 7.656253814697266 11.40437793731689 L 7.656253814697266 21.63360786437988 C 7.656253814697266 21.94660758972168 7.907144546508789 22.20198822021484 8.220083236694336 22.20772743225098 C 8.977583885192871 22.22165679931641 9.975954055786133 22.64217758178711 10.73952388763428 22.98187828063965 C 12.25900459289551 23.65787696838379 14.15005397796631 24.49914741516113 16.46066284179688 24.49996757507324 L 16.59679412841797 24.5000171661377 C 18.64374351501465 24.5000171661377 21.06436347961426 24.48024749755859 22.04101371765137 23.07704734802246 C 22.44258499145508 22.50010681152344 22.54087448120117 21.78342819213867 22.33521461486816 20.94133758544922 C 23.11581420898438 20.12532806396484 23.53451347351074 18.60320663452148 23.11911392211914 17.36409759521484 C 23.95867347717285 16.24283790588379 24.03518486022949 14.67808723449707 23.56451416015625 13.56137752532959 L 23.56978416442871 13.55611801147461 C 24.13887405395508 12.98438739776611 24.50398445129395 12.06032752990723 24.49996376037598 11.20195770263672 C 24.49250411987305 9.749567985534668 23.24835395812988 8.421876907348633 21.65026473999023 8.421876907348633 L 16.78265380859375 8.421876907348633 C 17.13230514526367 7.065767288208008 18.37501525878906 5.927278518676758 18.37501525878906 3.897607803344727 C 18.37501525878906 0.3828067779541016 16.07813453674316 -1.9073486328125e-06 14.92969417572021 -1.9073486328125e-06 M 1.148433685302734 10.71875762939453 C 0.5141639709472656 10.71875762939453 3.814697265625e-06 11.23291778564453 3.814697265625e-06 11.86719799041748 L 3.814697265625e-06 23.35157775878906 C 3.814697265625e-06 23.98584747314453 0.5141639709472656 24.5000171661377 1.148433685302734 24.5000171661377 L 4.976564407348633 24.5000171661377 C 5.610834121704102 24.5000171661377 6.125003814697266 23.98584747314453 6.125003814697266 23.35157775878906 L 6.125003814697266 11.86719799041748 C 6.125003814697266 11.23291778564453 5.610834121704102 10.71875762939453 4.976564407348633 10.71875762939453 L 1.148433685302734 10.71875762939453 M 3.062503814697266 22.58594703674316 C 2.428224563598633 22.58594703674316 1.914064407348633 22.07178688049316 1.914064407348633 21.4375171661377 C 1.914064407348633 20.80323791503906 2.428224563598633 20.28907775878906 3.062503814697266 20.28907775878906 C 3.696773529052734 20.28907775878906 4.210933685302734 20.80323791503906 4.210933685302734 21.4375171661377 C 4.210933685302734 22.07178688049316 3.696773529052734 22.58594703674316 3.062503814697266 22.58594703674316 M 14.92969417572021 -2.000001907348633 C 16.21885299682617 -2.000001907348633 17.37679481506348 -1.644783020019531 18.27832412719727 -0.9727516174316406 C 19.23482513427734 -0.2597522735595703 20.37501525878906 1.16398811340332 20.37501525878906 3.897607803344727 C 20.37501525878906 4.883565902709961 20.16528701782227 5.71626091003418 19.89345359802246 6.421876907348633 L 21.65026473999023 6.421876907348633 C 22.9459342956543 6.421876907348633 24.16688346862793 6.930997848510742 25.08821487426758 7.855457305908203 C 25.97908401489258 8.749357223510742 26.49363327026367 9.965367317199707 26.49993324279785 11.19168758392334 C 26.50440216064453 12.14552021026611 26.23101234436035 13.12823295593262 25.75350570678711 13.95602989196777 C 25.98256874084473 15.21955585479736 25.79913520812988 16.57203102111816 25.2387523651123 17.71312713623047 C 25.40232849121094 19.00090980529785 25.10700798034668 20.37427139282227 24.43185424804688 21.47483825683594 C 24.50250816345215 22.72114372253418 24.09022903442383 23.63385963439941 23.68253326416016 24.21959686279297 C 22.09532356262207 26.5000171661377 18.91729354858398 26.5000171661377 16.59679412841797 26.5000171661377 L 16.45993423461914 26.49996757507324 C 13.72481441497803 26.49899673461914 11.52951431274414 25.5223274230957 9.92656421661377 24.8091983795166 C 9.317144393920898 24.53807830810547 8.520004272460938 24.21357727050781 8.183313369750977 24.20738792419434 C 8.124977111816406 24.20631790161133 8.06696891784668 24.20331764221191 8.009340286254883 24.19841957092285 C 7.638561248779297 25.52446365356445 6.41932487487793 26.5000171661377 4.976564407348633 26.5000171661377 L 1.148433685302734 26.5000171661377 C -0.587615966796875 26.5000171661377 -1.999996185302734 25.08763694763184 -1.999996185302734 23.35157775878906 L -1.999996185302734 11.86719799041748 C -1.999996185302734 10.13113784790039 -0.587615966796875 8.718757629394531 1.148433685302734 8.718757629394531 L 4.976564407348633 8.718757629394531 C 5.625785827636719 8.718757629394531 6.229652404785156 8.916217803955078 6.731405258178711 9.254317283630371 C 7.438987731933594 8.496368408203125 7.978605270385742 7.709609985351563 8.545734405517578 6.882717132568359 C 9.168754577636719 5.974338531494141 9.812984466552734 5.035037994384766 10.67549419403076 4.17106819152832 C 10.98620414733887 3.859767913818359 11.1854944229126 3.030237197875977 11.36132431030273 2.298347473144531 L 11.36581420898438 2.279666900634766 C 11.48396396636963 1.788047790527344 11.6817045211792 0.9652080535888672 12.01617431640625 0.2198772430419922 C 12.8829345703125 -1.711603164672852 14.2136344909668 -2.000001907348633 14.92969417572021 -2.000001907348633 Z" stroke="none" fill="#fff"/>
    </g>
  </g>
</svg>
