<svg xmlns="http://www.w3.org/2000/svg" width="92" height="123" viewBox="0 0 92 123">
  <path id="Subtraction_5" data-name="Subtraction 5" d="M-1256,964h-82a5.006,5.006,0,0,1-5-5V846a5.005,5.005,0,0,1,5-5h82a5.005,5.005,0,0,1,5,5V959A5.006,5.006,0,0,1-1256,964Zm-72.53-94.615a5.006,5.006,0,0,0-5,5v.813a5.006,5.006,0,0,0,5,5h29.236a5.006,5.006,0,0,0,5-5v-.813a5.006,5.006,0,0,0-5-5Zm0-17.572a5.006,5.006,0,0,0-5,5v.813a5.006,5.006,0,0,0,5,5h44.118a5.006,5.006,0,0,0,5-5v-.813a5.006,5.006,0,0,0-5-5Z" transform="translate(1343 -841)" fill="#2c0f2b"/>
</svg>
