<svg xmlns="http://www.w3.org/2000/svg" width="145.182" height="118.274" viewBox="0 0 145.182 118.274">
  <g id="Sunrise_Icon" data-name="Sunrise Icon" transform="translate(-22 -1305.273)">
    <path id="sun-solid" d="M43.593,27.246A16.347,16.347,0,1,0,59.941,43.593,16.374,16.374,0,0,0,43.593,27.246ZM85.552,40.954,69.426,32.9l5.7-17.1A2.944,2.944,0,0,0,71.4,12.073l-17.1,5.7L46.233,1.635a2.948,2.948,0,0,0-5.279,0L32.9,17.761l-17.114-5.7a2.944,2.944,0,0,0-3.729,3.729l5.7,17.1L1.635,40.954a2.948,2.948,0,0,0,0,5.279l16.126,8.055L12.056,71.4a2.944,2.944,0,0,0,3.729,3.729l17.1-5.7,8.055,16.126a2.948,2.948,0,0,0,5.279,0L54.27,69.426l17.1,5.7A2.944,2.944,0,0,0,75.1,71.4l-5.7-17.1L85.518,46.25A2.952,2.952,0,0,0,85.552,40.954ZM59,59a21.794,21.794,0,1,1,0-30.822A21.82,21.82,0,0,1,59,59Z" transform="translate(80 1305.273)" fill="#de3b4e"/>
    <path id="Union_1" data-name="Union 1" d="M-1332.358,1072.046a18.361,18.361,0,0,1-18.455-18.255,18.249,18.249,0,0,1,10.483-16.472,13.733,13.733,0,0,1-13.67-13.659A13.736,13.736,0,0,1-1340.19,1010a13.824,13.824,0,0,1,12.426,7.693,20.6,20.6,0,0,1,9.76-2.438,20.529,20.529,0,0,1,17.776,10.166,12.337,12.337,0,0,1,6.831-2.053,12.24,12.24,0,0,1,12.3,12.169,12.134,12.134,0,0,1-.82,4.386,16.269,16.269,0,0,1,13.124,15.9,16.315,16.315,0,0,1-16.4,16.227Z" transform="translate(1428 349)" fill="#2c0f2b" stroke="#fafaff" stroke-width="5"/>
    <path id="cloud-solid" d="M77.475,60.044A13.851,13.851,0,0,0,64.562,41.223a13.764,13.764,0,0,0-7.681,2.335,23.06,23.06,0,0,0-43.046,11.5c0,.389.014.778.029,1.167a20.758,20.758,0,0,0,6.889,40.337H73.785a18.445,18.445,0,0,0,3.689-36.518Z" transform="translate(22 1322)" fill="#2c0f2b"/>
  </g>
</svg>
