<svg xmlns="http://www.w3.org/2000/svg" width="65" height="50.556" viewBox="0 0 65 50.556">
  <path id="comments-solid" d="M46.944,50.056C46.944,40.08,36.438,32,23.472,32S0,40.08,0,50.056A15.309,15.309,0,0,0,4.288,60.438a25.4,25.4,0,0,1-4.04,6.15.9.9,0,0,0-.169.982.884.884,0,0,0,.824.542,19.87,19.87,0,0,0,10.01-2.821,28.714,28.714,0,0,0,12.56,2.821C36.438,68.111,46.944,60.031,46.944,50.056ZM60.712,74.882A15.288,15.288,0,0,0,65,64.5c0-7.549-6.037-14.016-14.591-16.713a16.77,16.77,0,0,1,.147,2.268c0,11.951-12.154,21.667-27.083,21.667a33.834,33.834,0,0,1-3.577-.214C23.45,78,31.8,82.556,41.528,82.556a28.557,28.557,0,0,0,12.56-2.821A19.869,19.869,0,0,0,64.1,82.556a.89.89,0,0,0,.824-.542.9.9,0,0,0-.169-.982A25.13,25.13,0,0,1,60.712,74.882Z" transform="translate(0 -32)" fill="#2c0f2b"/>
</svg>
