<svg xmlns="http://www.w3.org/2000/svg" width="68" height="68.011" viewBox="0 0 68 68.011">
  <path id="search-solid" d="M64.116,56.206,51.458,43.548a3.045,3.045,0,0,0-2.158-.889H47.23a26.4,26.4,0,1,0-4.571,4.571V49.3a3.045,3.045,0,0,0,.889,2.158L56.206,64.116a3.035,3.035,0,0,0,4.3,0L64.1,60.523A3.061,3.061,0,0,0,64.116,56.206ZM26.408,42.659A16.251,16.251,0,1,1,42.659,26.408,16.242,16.242,0,0,1,26.408,42.659Z" transform="translate(1.5 1.5)" fill="#2c0f2b" stroke="#fff" stroke-width="3"/>
</svg>
