<svg xmlns="http://www.w3.org/2000/svg" width="87.182" height="87.187" viewBox="0 0 87.182 87.187">
  <path id="sun-solid" d="M43.593,27.246A16.347,16.347,0,1,0,59.941,43.593,16.374,16.374,0,0,0,43.593,27.246ZM85.552,40.954,69.426,32.9l5.7-17.1A2.944,2.944,0,0,0,71.4,12.073l-17.1,5.7L46.233,1.635a2.948,2.948,0,0,0-5.279,0L32.9,17.761l-17.114-5.7a2.944,2.944,0,0,0-3.729,3.729l5.7,17.1L1.635,40.954a2.948,2.948,0,0,0,0,5.279l16.126,8.055L12.056,71.4a2.944,2.944,0,0,0,3.729,3.729l17.1-5.7,8.055,16.126a2.948,2.948,0,0,0,5.279,0L54.27,69.426l17.1,5.7A2.944,2.944,0,0,0,75.1,71.4l-5.7-17.1L85.518,46.25A2.952,2.952,0,0,0,85.552,40.954ZM59,59a21.794,21.794,0,1,1,0-30.822A21.82,21.82,0,0,1,59,59Z" fill="#de3b4e"/>
</svg>
