<?xml version="1.0" standalone="no"?>
<!DOCTYPE svg PUBLIC "-//W3C//DTD SVG 20010904//EN"
 "http://www.w3.org/TR/2001/REC-SVG-20010904/DTD/svg10.dtd">
<svg version="1.0" xmlns="http://www.w3.org/2000/svg"
 width="1366.000000pt" height="917.000000pt" viewBox="0 0 1366.000000 917.000000"
 preserveAspectRatio="xMidYMid meet">
<metadata>
Created by potrace 1.15, written by Peter Selinger 2001-2017
</metadata>
<g transform="translate(0.000000,917.000000) scale(0.100000,-0.100000)"
fill="#000000" stroke="none">
<path d="M13367 9035 c-4 -22 -7 -95 -7 -162 l0 -122 -85 -90 c-47 -49 -108
-104 -135 -121 -66 -42 -67 -65 -4 -55 25 3 64 13 87 21 l42 14 -25 -20 c-42
-33 -246 -174 -279 -192 -46 -25 -40 -42 12 -35 36 5 161 44 232 73 11 4 -8
-16 -42 -44 -75 -62 -82 -88 -25 -78 l39 6 -41 -115 -41 -115 -92 0 c-115 0
-130 -13 -145 -129 -2 -20 -17 -29 -81 -53 -76 -29 -78 -31 -106 -86 -33 -67
-93 -232 -152 -422 -23 -74 -48 -141 -55 -149 -20 -22 -54 -1 -156 97 l-86 83
-6 87 c-4 48 -9 112 -13 142 l-6 55 -8 -46 c-7 -49 -53 -128 -110 -193 -27
-32 -31 -41 -21 -56 10 -17 1 -27 -78 -90 -50 -39 -90 -75 -90 -80 0 -15 46
-12 87 5 l36 15 -19 -21 c-10 -12 -49 -44 -86 -72 -38 -27 -68 -54 -68 -58 0
-28 115 20 197 82 29 21 54 39 56 39 3 0 -4 -17 -14 -37 -25 -50 -12 -60 46
-34 l47 21 -7 -43 c-14 -82 -54 -148 -146 -239 -71 -72 -84 -88 -66 -89 13 0
-13 -18 -67 -46 -68 -34 -110 -48 -175 -58 -47 -7 -93 -16 -102 -20 -15 -6
-58 -77 -185 -310 l-49 -89 -74 -28 c-41 -15 -80 -33 -87 -40 -7 -7 -41 -83
-75 -168 -34 -85 -66 -159 -71 -164 -5 -6 -22 -3 -43 7 -65 31 -88 24 -141
-43 -26 -33 -51 -60 -55 -60 -5 0 -9 -8 -9 -17 0 -15 -2 -16 -10 -3 -5 9 -5
17 1 20 6 4 0 32 -14 70 l-24 63 -8 -54 c-4 -30 -9 -67 -10 -84 -1 -16 -12
-51 -23 -77 -11 -25 -18 -49 -15 -52 6 -6 -146 -186 -157 -186 -8 0 -40 79
-40 100 0 27 -12 1 -25 -57 -8 -32 -10 -59 -5 -61 6 -2 -31 -101 -45 -120 -5
-6 -120 70 -128 85 -7 11 -6 14 2 9 15 -9 6 85 -10 116 -8 15 -8 23 -2 25 6 2
2 26 -10 60 l-21 56 -12 -53 c-7 -30 -10 -59 -7 -66 2 -7 -5 -30 -16 -53 -17
-31 -19 -46 -11 -66 11 -29 -4 -59 -50 -100 -13 -11 -80 -87 -150 -170 -70
-82 -137 -158 -148 -168 -20 -18 -21 -18 -31 2 -12 22 0 37 22 25 6 -4 2 4
-11 18 -17 19 -20 27 -10 30 11 4 10 8 -1 22 -8 10 -16 25 -16 34 -16 162 -26
191 -40 113 -3 -19 -11 -43 -16 -54 -8 -14 -8 -21 0 -26 7 -5 6 -16 -4 -35
-19 -37 -19 -41 3 -25 9 7 7 2 -5 -12 -28 -31 -29 -43 -3 -29 30 16 24 -5 -7
-29 -16 -11 -22 -21 -14 -21 11 0 10 -5 -4 -20 -18 -20 -18 -21 -1 -14 14 5
17 3 14 -7 -2 -8 -15 -16 -27 -17 -14 -2 -21 0 -17 6 3 6 -2 13 -13 17 -10 3
-21 14 -24 25 -4 16 -1 18 27 14 26 -4 27 -3 10 5 -26 11 -40 31 -23 31 8 0 8
4 -1 15 -7 8 -10 15 -6 15 4 0 0 13 -8 29 -10 19 -12 31 -5 38 8 8 7 13 0 17
-17 11 -13 26 7 26 14 0 12 4 -8 20 -14 11 -19 20 -11 20 10 0 11 4 3 13 -6 7
-14 41 -18 77 -7 67 -23 116 -24 73 0 -13 0 -25 0 -28 0 -3 -7 -21 -15 -41 -8
-20 -12 -46 -9 -59 3 -13 1 -26 -5 -29 -6 -4 -11 -12 -11 -17 0 -6 5 -7 10 -4
6 3 10 1 10 -5 0 -6 -7 -13 -15 -16 -23 -9 -18 -26 5 -19 30 10 24 -3 -12 -25
-25 -15 -28 -20 -13 -20 15 0 16 -3 7 -12 -15 -15 -16 -32 -2 -23 6 3 10 2 10
-4 0 -5 -8 -15 -17 -20 -17 -10 -17 -10 1 -11 18 0 18 -2 -4 -25 -22 -23 -22
-25 -4 -25 16 0 17 -2 4 -10 -8 -5 -11 -10 -6 -10 5 0 1 -10 -10 -22 -17 -19
-17 -21 -1 -15 23 9 22 -8 -3 -33 -26 -26 -25 -33 1 -25 14 5 19 3 15 -3 -3
-6 0 -12 6 -15 10 -3 10 -7 0 -20 -8 -9 -20 -13 -28 -10 -27 10 -67 -8 -118
-56 -113 -107 -331 -280 -340 -271 -5 5 -9 17 -10 27 -1 10 -5 43 -9 73 -10
70 -15 121 -16 139 -1 8 -4 11 -7 8 -7 -6 -14 -39 -19 -87 -1 -14 -10 -51 -20
-83 -9 -32 -14 -65 -11 -73 8 -20 -3 -18 -49 11 -43 26 -60 31 -50 15 3 -5 0
-10 -7 -11 -7 0 -4 -4 6 -8 19 -7 34 -51 17 -51 -13 0 -43 49 -36 60 3 5 1 11
-5 15 -5 3 -10 12 -10 18 0 9 2 9 8 0 4 -6 19 -9 35 -6 l29 6 -39 18 c-28 13
-32 18 -17 18 25 1 28 28 3 36 -9 3 -19 14 -22 25 -4 16 -1 18 27 14 17 -2 24
-1 16 3 -22 10 -44 33 -30 33 6 0 8 5 3 13 -10 15 -15 35 -17 67 -1 14 -5 31
-10 39 -5 8 -4 16 5 22 11 7 10 11 -6 24 -19 16 -19 16 -1 10 19 -6 19 -5 3
13 -10 11 -17 23 -16 28 6 20 -14 134 -22 134 -8 0 -10 -7 -9 -35 0 -3 -7 -21
-15 -41 -8 -20 -12 -46 -9 -59 3 -13 1 -26 -5 -29 -15 -10 -14 -29 2 -20 6 4
4 -2 -5 -13 -24 -26 -23 -36 2 -28 30 10 24 -3 -12 -25 -25 -15 -28 -20 -13
-20 15 0 16 -3 7 -12 -15 -15 -16 -32 -2 -23 6 3 10 1 10 -5 0 -6 -10 -15 -22
-20 l-23 -9 24 0 24 -1 -23 -25 c-22 -23 -22 -25 -4 -26 10 0 13 -3 6 -6 -6
-2 -10 -9 -6 -14 3 -5 -2 -12 -10 -15 -9 -3 -16 -11 -16 -16 0 -6 7 -8 15 -4
21 8 19 -10 -5 -34 -25 -25 -25 -29 2 -22 14 3 19 1 14 -6 -3 -6 -2 -14 4 -17
18 -11 -9 -35 -40 -35 -15 0 -35 9 -46 22 -10 12 -13 18 -6 14 17 -10 11 23
-11 54 -16 22 -16 25 -1 30 14 5 12 11 -11 38 -15 18 -28 38 -29 44 -1 7 -5
19 -9 26 -5 6 -4 12 2 12 5 0 13 -4 16 -10 3 -6 11 -10 16 -10 6 0 7 5 4 10
-3 6 2 10 12 10 12 1 6 7 -17 20 -23 13 -29 19 -17 20 10 0 15 4 12 10 -3 5 0
10 7 10 7 0 2 6 -11 13 -35 17 -36 45 -2 39 l26 -4 -24 17 c-18 14 -20 19 -10
26 11 7 11 9 1 9 -7 0 -12 6 -10 13 1 6 -4 23 -11 36 -10 18 -10 25 0 35 9 8
10 8 4 -3 -6 -10 -4 -12 4 -6 9 5 6 14 -11 33 -18 20 -19 24 -5 19 21 -8 22 6
2 23 -8 7 -12 16 -9 22 3 5 1 14 -4 21 -5 7 -9 27 -10 45 0 17 -1 33 -2 35 -1
1 -3 17 -6 36 -6 45 -12 50 -19 15 -4 -16 -12 -46 -20 -66 -9 -27 -10 -38 -1
-41 7 -3 5 -15 -8 -37 -18 -32 -18 -33 -1 -26 18 6 18 6 2 -12 -22 -24 -22
-36 1 -28 9 3 4 -5 -13 -19 -18 -15 -24 -25 -15 -25 11 0 11 -3 2 -12 -17 -17
-15 -28 5 -21 11 4 14 3 9 -6 -5 -7 -18 -16 -30 -21 -20 -9 -20 -9 3 -9 l24
-1 -23 -25 c-22 -23 -22 -25 -4 -25 16 0 17 -2 4 -10 -8 -5 -11 -10 -6 -10 5
0 1 -10 -10 -21 -19 -22 -19 -22 6 -14 l24 8 -26 -35 -27 -35 27 4 c19 3 23 2
13 -5 -11 -8 -11 -10 0 -15 10 -4 6 -12 -14 -29 -29 -26 -27 -38 7 -38 17 0
15 -5 -17 -38 -44 -45 -46 -57 -9 -47 l27 7 -21 -24 c-12 -13 -24 -31 -27 -41
-4 -10 -12 -15 -18 -12 -5 4 -8 10 -4 13 3 3 -4 11 -16 18 -30 16 -35 48 -7
41 19 -5 19 -5 2 14 -12 14 -14 19 -4 19 9 0 7 5 -6 15 -13 10 -15 14 -5 15
11 0 10 4 -4 20 -19 21 -13 56 7 44 7 -4 3 4 -10 18 -17 19 -20 27 -10 30 11
4 10 8 -1 22 -8 9 -16 34 -18 54 -1 20 -5 46 -7 57 -3 11 -5 36 -5 55 -1 42
-17 30 -26 -19 -3 -19 -11 -43 -16 -54 -8 -14 -8 -22 2 -27 10 -7 9 -14 -4
-34 -20 -30 -22 -40 -4 -30 6 4 4 -2 -5 -13 -24 -26 -23 -32 5 -26 21 4 22 4
3 -11 -11 -9 -23 -16 -28 -16 -4 0 -8 -5 -8 -11 0 -5 5 -7 10 -4 6 3 10 2 10
-4 0 -5 -6 -12 -12 -14 -10 -4 -10 -7 0 -15 14 -10 3 -23 -28 -35 -10 -4 -7
-6 8 -6 28 -1 28 -15 0 -35 -18 -13 -19 -16 -5 -16 24 0 21 -27 -3 -35 -11 -4
-18 -10 -15 -15 3 -5 13 -6 23 -3 15 6 15 5 3 -10 -7 -9 -10 -17 -5 -17 4 0
-1 -7 -12 -15 -18 -14 -18 -14 6 -15 18 0 21 -3 11 -9 -11 -7 -11 -9 0 -13 8
-3 -5 -7 -29 -9 -24 -3 -46 -1 -48 3 -3 4 1 8 8 8 8 0 6 5 -5 11 -9 6 -15 14
-12 19 3 5 -2 22 -12 37 -16 24 -16 26 -1 21 26 -10 30 4 8 27 -19 21 -20 23
-4 29 16 6 16 8 -1 20 -10 7 -19 22 -21 32 -1 11 -5 48 -9 84 -4 36 -10 69
-15 73 -9 10 -30 -67 -34 -123 -2 -19 -7 -44 -11 -54 -7 -15 -5 -18 6 -12 8 4
4 -1 -8 -12 -24 -21 -21 -34 5 -24 15 5 15 4 3 -11 -7 -9 -21 -17 -29 -17 -12
0 -13 -3 -4 -12 9 -9 8 -16 -6 -31 -16 -19 -16 -19 6 -13 30 10 28 0 -5 -18
l-28 -15 25 -1 c24 0 24 0 5 -19 -14 -14 -49 -25 -113 -35 -104 -16 -128 -28
-169 -83 -15 -21 -35 -43 -43 -50 -25 -19 -112 -40 -367 -87 -135 -25 -256
-52 -272 -62 -16 -9 -46 -43 -66 -75 -20 -32 -47 -65 -60 -73 -15 -10 -152
-34 -377 -66 -194 -28 -357 -52 -363 -54 -5 -3 427 -5 961 -5 l970 -1 54 26
c30 14 60 34 68 43 7 9 11 10 7 4 -4 -9 -1 -11 9 -7 9 3 16 10 16 15 0 4 21
17 46 29 26 11 53 28 61 38 8 9 12 11 8 5 -4 -9 -1 -11 9 -7 9 3 16 10 16 15
0 4 21 17 46 28 25 12 55 32 66 46 11 14 23 23 27 20 5 -2 18 7 30 21 16 18
26 23 33 16 12 -12 38 -5 38 10 0 6 -6 5 -15 -2 -9 -7 -15 -8 -15 -2 0 15 26
22 38 10 6 -6 18 0 36 19 17 18 26 23 26 13 0 -9 5 -7 16 8 8 12 19 20 24 17
5 -3 12 0 16 6 4 8 3 9 -4 5 -7 -4 -12 -3 -12 2 0 5 23 19 50 31 28 12 50 25
50 30 0 5 7 12 16 15 10 4 13 2 9 -7 -4 -6 0 -4 8 5 8 10 35 27 61 38 25 12
46 25 46 29 0 5 7 12 16 15 10 4 13 2 9 -7 -4 -6 0 -4 8 5 8 10 35 27 61 38
25 12 46 26 46 32 0 5 7 8 15 4 8 -3 18 1 22 8 5 7 31 25 60 40 44 22 66 26
136 26 52 0 88 5 96 12 11 10 12 10 7 1 -5 -9 -2 -11 8 -7 8 3 18 15 21 25 5
15 10 17 20 9 9 -8 14 -7 19 5 3 8 12 15 20 15 8 0 25 12 37 27 12 16 19 20
16 11 -4 -12 -2 -15 9 -11 8 3 13 8 10 10 -3 3 1 11 7 18 9 10 15 10 26 1 12
-9 13 -7 9 11 -4 13 -2 26 3 29 5 3 9 1 9 -5 0 -6 7 -8 15 -5 16 7 22 -21 6
-30 -5 -3 -11 -14 -13 -23 -4 -14 2 -18 26 -19 17 -1 25 1 18 3 -6 3 -10 9 -6
14 3 5 -3 9 -13 10 -16 0 -16 1 2 9 29 12 37 12 29 -2 -5 -8 -2 -9 10 -5 10 4
23 7 29 8 7 0 3 4 -8 8 -17 7 -15 10 18 20 22 8 34 17 31 23 -5 7 -2 8 7 2 17
-11 58 -17 44 -7 -14 11 -17 33 -5 33 6 0 10 -4 10 -10 0 -6 9 -5 25 2 13 6
23 15 22 21 -1 5 4 12 12 15 9 3 11 0 6 -8 -5 -8 -3 -11 4 -9 7 3 12 8 11 13
-3 14 24 26 44 20 11 -4 16 -2 13 3 -4 6 5 15 19 22 36 16 38 14 14 -19 -19
-26 -19 -30 -5 -30 14 0 13 -7 -9 -45 -16 -26 -22 -45 -15 -45 23 0 1 -72 -32
-106 l-33 -34 24 -20 c18 -16 21 -23 12 -32 -18 -18 -14 -30 8 -23 27 9 26
-13 -3 -49 l-23 -29 -28 47 c-16 27 -25 54 -21 64 6 16 -44 141 -57 142 -4 0
-16 -25 -27 -55 -12 -31 -32 -78 -46 -105 -29 -58 -30 -61 -10 -54 13 5 13 1
0 -36 -25 -70 -54 -110 -80 -110 -13 0 -59 -18 -102 -41 -127 -67 -345 -132
-613 -182 -105 -20 -134 -30 -183 -61 -32 -21 -81 -48 -109 -61 -34 -16 -76
-51 -127 -104 -73 -77 -78 -81 -120 -81 -67 0 -219 -39 -282 -72 -30 -16 -84
-56 -120 -89 l-64 -60 780 5 c502 3 771 1 756 -5 -14 -5 -51 -12 -83 -16 -80
-8 -83 -23 -6 -24 35 -1 55 -3 46 -6 -10 -2 -18 -9 -18 -14 0 -10 80 -4 139
12 19 5 37 7 39 5 8 -9 -116 -97 -165 -118 -29 -12 -53 -26 -53 -30 0 -5 19
-9 43 -9 23 1 62 0 87 0 l45 0 -57 -22 c-32 -12 -58 -26 -58 -31 0 -5 23 -6
51 -4 32 3 46 2 37 -4 -32 -21 -146 -76 -173 -82 -26 -7 -27 -9 -12 -17 10 -6
27 -7 40 -3 22 7 22 7 3 -15 l-20 -22 45 7 c24 4 61 13 82 20 20 7 37 11 37 9
0 -2 -28 -24 -62 -47 l-63 -43 35 -5 35 -5 -67 -29 c-37 -16 -66 -33 -65 -39
1 -5 -14 -15 -33 -22 l-35 -13 55 -1 c52 -1 146 11 193 24 12 4 -3 -8 -33 -25
-30 -17 -65 -33 -77 -36 -13 -4 -23 -10 -23 -15 0 -16 65 -8 140 16 21 7 23 6
13 -7 -9 -10 -9 -18 -2 -25 15 -15 -75 -67 -163 -94 -38 -12 -66 -25 -63 -29
6 -9 -56 -30 -87 -30 -10 0 -18 -5 -18 -11 0 -8 27 -10 89 -7 l90 4 -31 -18
c-16 -11 -28 -21 -26 -23 2 -3 46 2 98 10 51 9 97 14 102 13 5 -2 -22 -28 -59
-59 -60 -49 -116 -88 -243 -168 l-35 -22 40 5 40 6 -55 -27 c-36 -17 -49 -27
-38 -30 18 -4 236 23 266 34 24 9 10 -4 -85 -76 -46 -34 -83 -69 -83 -77 0
-13 -10 -15 -57 -10 -32 3 -224 11 -428 17 -475 15 -477 15 -582 -77 -81 -70
-185 -142 -240 -163 -20 -8 -51 -11 -80 -7 -151 19 -228 18 -316 -3 -106 -25
-142 -26 -267 -5 -156 25 -202 22 -279 -21 -263 -144 -638 -300 -1215 -506
l-250 -90 -150 -9 c-83 -5 -224 -15 -313 -21 -90 -6 -170 -9 -178 -5 -28 10
-16 149 21 251 6 16 0 14 -25 -10 -43 -40 -88 -134 -96 -200 l-7 -54 -93 -3
-93 -3 -21 75 c-25 87 -108 261 -145 305 l-25 30 20 -58 c45 -131 84 -357 62
-357 -5 0 -26 21 -47 46 -35 42 -89 84 -108 84 -5 0 1 -9 13 -21 11 -11 29
-39 39 -62 l19 -42 -252 -3 c-236 -3 -716 12 -781 25 l-28 5 4 87 c4 63 12
103 31 150 l27 65 -26 -25 c-36 -34 -72 -108 -95 -197 -10 -41 -21 -77 -22
-79 -2 -2 -23 47 -47 108 -24 61 -46 107 -48 101 -3 -10 21 -148 34 -192 3
-13 -14 -14 -139 -7 -140 8 -672 2 -774 -9 l-52 -6 -37 52 c-36 50 -39 52 -77
47 -23 -3 -55 -18 -79 -38 l-40 -32 -72 76 c-73 78 -111 101 -150 91 -17 -4
-29 4 -54 35 -18 23 -39 41 -47 41 -31 0 -45 30 -45 98 0 64 -17 151 -36 185
-6 9 -8 -31 -5 -101 l3 -117 -76 3 c-50 2 -76 8 -76 15 0 7 11 39 25 71 13 33
22 62 20 65 -8 7 -46 -31 -62 -62 -8 -16 -17 -27 -19 -24 -7 7 40 126 90 226
30 60 40 87 28 80 -28 -18 -85 -94 -118 -159 l-31 -60 -6 113 c-7 122 -27 241
-59 355 -26 91 -34 88 -11 -4 18 -75 22 -366 5 -434 l-8 -35 -31 31 c-21 20
-38 54 -52 100 -25 85 -41 108 -76 109 -25 2 -30 9 -60 91 -53 150 -71 168
-155 162 -32 -2 -50 1 -50 8 0 6 13 37 28 68 16 31 25 56 20 56 -5 0 -33 -24
-63 -53 -30 -29 -55 -51 -55 -49 0 10 84 171 112 214 l30 48 3421 2 3421 3
-163 103 c-89 57 -196 122 -237 144 -82 44 -156 62 -495 118 l-195 32 -74 95
c-114 144 -151 175 -250 208 -62 21 -96 39 -130 70 -61 56 -185 149 -299 224
l-93 61 -83 0 c-71 0 -85 3 -90 18 -16 48 -124 135 -195 156 -26 8 -129 19
-227 26 -98 6 -206 13 -241 16 l-62 6 0 73 0 73 50 -19 c28 -10 67 -19 88 -19
l37 1 -45 22 c-25 12 -59 33 -75 46 l-30 24 30 -8 c34 -9 44 -10 133 -7 39 1
61 6 57 12 -3 6 -15 10 -26 10 -21 0 -94 34 -103 48 -3 4 21 6 53 4 37 -3 61
0 65 7 5 7 -2 11 -16 11 -13 1 -36 7 -53 15 l-30 13 36 1 c46 1 129 26 154 46
19 15 17 16 -30 11 -43 -5 -47 -4 -25 6 23 10 19 12 -40 19 -36 4 -83 15 -105
23 l-40 16 46 -6 c69 -9 67 10 -2 31 -69 21 -83 33 -33 27 53 -6 144 7 141 21
-1 7 13 13 36 15 48 4 38 22 -12 22 -40 0 -178 33 -189 45 -4 4 14 4 41 1 63
-10 60 6 -5 32 l-53 20 65 -5 c40 -3 76 0 95 8 l30 12 -54 8 c-29 4 -74 15
-100 26 l-46 18 50 5 50 5 -45 22 -45 21 47 1 c26 1 53 7 60 14 7 8 27 17 43
22 27 8 24 9 -39 21 -77 15 -95 24 -48 24 38 0 64 9 56 21 -3 5 -15 9 -27 9
-12 1 -35 7 -52 16 l-30 14 42 -5 c62 -7 60 8 -5 35 -51 22 -54 25 -32 30 l25
6 -32 17 c-41 22 -42 28 -3 17 31 -9 84 -13 135 -10 26 1 22 4 -25 19 -30 10
-68 25 -85 34 l-30 17 43 -6 c50 -8 54 0 10 20 -18 8 -42 21 -53 30 -19 15
-19 15 12 16 33 0 52 15 31 23 -10 4 -10 8 1 15 11 8 5 13 -25 21 -71 20 -75
33 -7 26 72 -8 120 8 62 20 -83 18 -141 55 -86 55 13 0 32 7 43 15 19 14 19
14 -1 15 -17 0 -16 3 10 25 35 28 29 31 -22 10 -48 -20 -77 -18 -35 2 36 19
43 34 10 25 -14 -3 -19 -1 -14 6 4 6 -3 12 -16 14 -29 4 -38 38 -9 38 11 0 32
5 48 11 24 10 26 12 9 18 -15 6 -11 10 23 26 23 10 41 22 41 27 0 11 0 11 -50
-7 -60 -21 -64 -19 -41 19 29 47 26 55 -9 21 -46 -44 -47 -23 -1 46 52 78 52
94 1 44 -47 -46 -52 -31 -10 37 36 58 38 67 8 42 -13 -10 -17 -12 -10 -4 18
21 15 32 -8 25 -19 -6 -20 -2 -21 67 -1 93 -16 149 -18 68 -2 -52 -2 -54 -18
-35 -15 19 -15 19 -10 -10 3 -16 9 -39 13 -50 l7 -20 -23 20 -24 20 22 -36
c17 -28 22 -52 22 -100 l0 -64 -20 43 c-10 23 -22 42 -26 42 -6 0 0 -45 12
-95 3 -11 -4 -4 -15 15 l-20 35 -1 -38 0 -38 -30 16 c-45 23 -47 18 -9 -22 83
-90 85 -101 6 -40 -34 27 -55 24 -22 -3 23 -19 18 -31 -11 -24 -37 9 -25 -8
34 -48 l47 -33 -40 -5 -40 -6 53 -14 c49 -13 52 -15 52 -47 0 -37 -4 -39 -40
-18 -33 19 -46 19 -30 0 11 -13 4 -15 -51 -15 -50 -1 -60 -3 -46 -11 10 -6 42
-13 72 -16 30 -3 52 -9 50 -14 -3 -4 -27 -15 -54 -24 -28 -9 -51 -20 -53 -24
-2 -5 -25 -16 -53 -25 l-50 -15 77 3 c43 2 78 2 78 0 0 -1 -26 -8 -57 -16
l-58 -13 60 -5 60 -6 -33 -14 c-41 -18 -41 -30 1 -31 l32 -1 -40 -19 c-66 -31
-113 -25 -161 19 -35 32 -94 111 -94 127 0 3 23 -6 51 -20 68 -35 83 -27 26
15 -26 18 -47 35 -47 36 0 2 30 -8 66 -22 99 -37 111 -25 26 25 -73 42 -146
100 -138 108 2 2 29 -2 60 -10 31 -9 56 -11 56 -6 0 5 -8 13 -17 16 -14 6 -8
10 22 19 l40 11 -40 13 c-56 18 -129 55 -144 74 -17 21 -13 20 43 -5 73 -32
83 -20 24 27 -57 44 -110 116 -70 95 33 -18 34 -13 5 32 -15 23 -26 51 -25 61
0 10 -6 33 -15 50 l-16 31 38 -33 c49 -44 56 -33 13 20 -19 24 -43 57 -54 73
-18 30 -18 30 14 -4 44 -46 50 -34 12 25 -17 27 -29 56 -27 65 3 10 -8 43 -24
75 l-28 59 -25 -60 c-14 -33 -35 -78 -47 -99 -18 -34 -19 -38 -5 -33 14 6 16
3 10 -16 -12 -41 -46 -102 -85 -154 -36 -48 -38 -53 -19 -53 17 0 20 -4 15
-20 -7 -22 6 -26 36 -10 10 6 19 8 19 5 0 -17 -38 -74 -78 -117 -25 -26 -42
-51 -38 -55 3 -3 -1 -15 -11 -25 -9 -10 -13 -18 -9 -18 11 0 88 40 121 63 23
16 27 17 16 4 -25 -31 -111 -89 -160 -107 l-48 -19 -79 40 c-43 21 -95 53
-114 70 l-35 31 66 -36 c76 -42 84 -43 69 -16 -6 11 -9 24 -6 29 3 4 -12 22
-34 40 -41 33 -97 117 -86 128 3 4 12 1 18 -5 20 -20 40 -15 33 8 -5 16 -2 20
15 20 19 0 16 7 -26 65 -52 73 -93 168 -70 159 9 -4 -1 29 -27 90 -23 52 -44
95 -47 95 -12 0 -57 -118 -49 -126 5 -5 -3 -29 -21 -57 -34 -53 -33 -70 2 -40
26 22 18 9 -36 -58 -41 -52 -30 -65 17 -20 l29 27 -16 -32 c-9 -17 -13 -38
-10 -47 3 -8 -6 -32 -20 -53 -31 -45 -33 -57 -6 -43 11 6 20 7 20 2 0 -12 -67
-82 -110 -115 -32 -24 -33 -27 -12 -27 12 0 46 12 75 26 51 26 52 26 32 4 -11
-13 -48 -36 -82 -52 -61 -27 -64 -28 -103 -12 -49 20 -51 30 -5 38 35 7 57 27
37 34 -8 2 -3 11 10 23 28 22 14 24 -42 4 -57 -20 -61 -19 -22 5 37 23 42 35
11 25 -15 -5 -19 -4 -15 4 5 7 -2 11 -18 11 -19 0 -26 5 -26 20 0 13 7 20 19
20 11 0 32 5 48 11 25 10 26 12 9 18 -17 6 -15 9 12 20 17 7 37 20 43 28 11
12 8 13 -17 7 -16 -4 -40 -11 -53 -16 -34 -12 -37 -4 -11 32 30 42 17 51 -20
15 -23 -22 -30 -25 -30 -12 0 8 5 19 10 22 12 7 70 106 70 119 0 5 -18 -11
-40 -35 -32 -36 -39 -40 -40 -24 0 12 4 25 8 30 5 6 19 28 32 50 l24 40 -24
-20 -23 -20 12 23 c12 22 11 23 -8 17 -19 -6 -21 -2 -22 42 0 26 -4 71 -9 98
l-7 50 -2 -41 c-1 -47 -9 -58 -27 -43 -11 9 -11 2 0 -36 l15 -47 -22 19 c-21
18 -21 18 1 -20 16 -29 22 -54 21 -100 l0 -62 -25 50 -24 50 4 -55 c5 -52 4
-53 -9 -30 l-14 25 -1 -37 0 -37 -35 21 c-56 32 -54 12 5 -47 60 -61 59 -72
-1 -24 -42 33 -48 32 -24 -5 15 -23 15 -23 -12 -19 l-28 4 30 -28 c17 -15 41
-36 55 -46 l25 -18 -43 6 c-57 7 -47 -10 16 -28 48 -14 60 -30 43 -57 -9 -12
-15 -12 -46 3 -46 22 -52 21 -30 -3 18 -20 17 -20 -41 -20 -70 -1 -56 -15 28
-28 l53 -9 -40 -17 c-22 -9 -47 -21 -55 -26 -33 -22 -42 -22 -63 -2 l-20 21
21 -6 c34 -8 27 15 -23 81 -25 33 -45 67 -45 75 -1 9 -20 48 -44 86 -44 70
-50 89 -21 65 20 -17 19 -1 -5 55 -11 26 -18 51 -14 56 4 7 -11 74 -43 184 -5
18 -4 18 12 5 16 -14 17 -12 11 20 -4 19 -10 43 -13 54 -3 12 -1 16 6 12 16
-10 14 -3 -14 66 -30 73 -30 79 -8 71 12 -5 15 -2 10 8 -41 96 -57 137 -57
152 0 41 -17 12 -27 -50 -7 -38 -15 -81 -19 -97 -5 -21 -4 -27 5 -22 12 8 8
-5 -33 -96 -14 -32 -21 -58 -15 -58 7 0 8 -12 3 -32 -6 -30 -5 -31 10 -19 10
9 -1 -27 -29 -95 -25 -60 -41 -110 -36 -112 6 -2 0 -31 -14 -69 -29 -76 -30
-87 -10 -79 13 5 14 2 4 -15 -8 -15 -8 -24 -1 -28 7 -4 -18 -64 -63 -156 -49
-99 -70 -152 -63 -156 8 -5 7 -20 -5 -51 -21 -54 -21 -64 -1 -47 12 10 11 2
-5 -40 -11 -29 -22 -56 -25 -59 -9 -9 -76 31 -120 71 -36 34 -38 38 -16 33 14
-3 43 -9 65 -12 40 -7 40 -7 22 14 -19 21 -19 21 20 24 42 4 40 6 -51 39 -32
12 -72 34 -90 50 l-31 29 55 -25 c30 -14 64 -25 75 -25 16 0 14 5 -15 27 -41
32 -110 104 -110 116 0 4 9 3 20 -3 27 -14 25 -2 -6 43 -14 21 -23 45 -20 53
3 9 -1 30 -10 47 l-16 32 29 -27 c47 -45 59 -32 17 19 -55 70 -62 81 -38 61
39 -33 43 -18 8 33 -35 53 -41 69 -25 69 11 0 -40 119 -50 120 -3 0 -21 -35
-39 -77 -17 -43 -36 -82 -41 -88 -12 -12 -11 -28 1 -20 34 21 -21 -104 -76
-172 -39 -48 -42 -57 -14 -50 17 4 19 1 14 -19 -7 -28 3 -30 34 -8 12 8 22 12
22 9 0 -20 -45 -86 -83 -124 -25 -24 -43 -49 -41 -56 3 -7 1 -16 -5 -20 -6 -3
-11 -10 -11 -16 0 -11 59 12 103 42 28 18 27 16 -7 -15 -22 -20 -62 -47 -90
-60 l-50 -24 -33 55 c-18 30 -40 67 -48 83 -14 27 -13 28 6 23 19 -5 19 -4 -5
51 -14 31 -21 56 -16 56 5 0 -2 41 -16 91 -26 97 -30 123 -14 99 20 -30 3 133
-19 183 -20 47 -20 48 -1 42 18 -6 17 -1 -10 67 -16 40 -32 82 -36 93 -5 14
-11 -1 -23 -55 -10 -41 -21 -86 -25 -99 -7 -19 -5 -23 7 -18 11 4 5 -16 -19
-70 -23 -51 -31 -78 -24 -83 7 -5 8 -15 1 -33 -8 -21 -7 -25 4 -20 20 7 20 6
-25 -98 -42 -96 -47 -114 -30 -104 5 3 -3 -30 -19 -75 -18 -51 -24 -79 -16
-76 26 10 7 -80 -35 -163 l-41 -83 -37 6 c-59 11 -125 35 -152 56 l-25 19 58
-6 c39 -4 57 -2 57 6 0 6 -7 11 -15 11 -17 0 -125 47 -125 54 0 3 19 -2 43
-10 58 -20 145 -22 181 -2 l30 16 -55 7 c-62 8 -79 16 -112 49 l-24 24 73 -5
c41 -3 74 -3 74 0 0 3 -21 12 -46 21 -51 17 -138 65 -131 72 2 2 20 -3 40 -11
70 -29 71 -16 6 44 -35 32 -74 77 -87 99 l-23 41 56 -25 c31 -14 59 -24 61
-21 3 3 -11 17 -31 32 -19 15 -34 29 -32 31 2 2 30 -5 61 -17 90 -31 94 -18
10 31 -42 25 -93 60 -113 78 -33 31 -34 33 -11 28 14 -3 43 -9 65 -12 l40 -7
-19 22 -19 21 37 0 c48 0 39 14 -19 30 -46 13 -141 67 -133 76 3 2 25 -5 49
-16 81 -36 88 -25 21 36 -35 31 -67 65 -73 76 -10 18 -9 19 11 8 32 -17 32 -9
1 39 -16 23 -27 51 -24 61 3 10 0 28 -7 40 l-12 22 31 -23 c41 -30 49 -19 14
22 -16 19 -35 43 -43 53 -15 19 -14 19 12 2 35 -23 35 -18 -2 41 -18 28 -29
56 -26 68 2 11 -8 45 -24 75 l-28 55 -27 -59 c-14 -32 -35 -76 -46 -99 -18
-34 -19 -39 -4 -33 13 5 15 2 9 -17 -12 -41 -46 -102 -85 -154 -36 -48 -38
-53 -19 -53 17 0 20 -4 15 -20 -7 -22 6 -26 36 -10 10 6 19 7 19 2 0 -17 -58
-98 -88 -124 -18 -15 -32 -35 -32 -45 0 -11 -5 -24 -12 -31 -21 -21 4 -13 71
24 l66 35 -39 -33 c-40 -34 -132 -87 -153 -88 -6 0 -15 -5 -19 -11 -5 -8 6
-10 35 -7 29 2 41 0 41 -9 0 -18 25 -16 88 6 48 17 51 17 37 1 -30 -34 -127
-74 -187 -78 -32 -3 -61 -8 -64 -13 -3 -5 4 -9 15 -9 11 0 26 -7 35 -15 9 -9
34 -15 63 -15 l48 -1 -60 -31 c-72 -37 -73 -37 -56 -47 9 -6 6 -10 -10 -14
-23 -6 -39 6 -39 31 0 7 5 10 11 7 5 -4 3 10 -6 32 -17 40 -51 121 -66 162 -9
22 -8 23 7 10 15 -12 16 -11 9 11 -4 14 -10 31 -12 38 -4 8 0 10 11 6 12 -4 7
13 -19 71 -39 84 -40 89 -24 79 8 -5 10 1 6 17 -3 13 -11 51 -17 84 -19 91
-21 94 -35 50 -7 -22 -22 -62 -34 -88 -25 -58 -25 -61 -6 -53 19 7 19 10 -10
-69 -14 -36 -20 -63 -14 -59 11 6 9 -8 -9 -86 -5 -23 -4 -24 13 -10 16 14 17
13 12 -5 -32 -111 -46 -175 -42 -186 3 -8 1 -20 -4 -28 -7 -12 -17 -9 -55 13
-48 28 -119 86 -113 92 1 2 27 -3 57 -11 76 -20 91 -19 61 5 l-23 20 35 0 c51
0 53 15 4 30 -58 17 -128 54 -151 79 -25 27 -16 26 44 -4 84 -42 87 -30 11 43
-39 37 -71 73 -71 81 0 11 3 11 15 1 28 -23 28 -1 1 41 -15 22 -25 47 -22 56
3 8 -1 27 -9 43 -23 45 -18 47 20 10 53 -52 51 -30 -5 41 -27 35 -50 68 -50
73 0 5 9 -3 21 -18 39 -49 49 -29 13 26 -21 30 -33 60 -30 70 2 11 -8 47 -24
81 l-28 62 -17 -40 c-9 -22 -29 -68 -45 -102 -16 -35 -25 -63 -19 -63 5 0 9
-6 9 -12 0 -23 -58 -132 -97 -182 l-37 -49 26 5 c24 5 26 3 17 -14 -15 -29 -2
-35 32 -16 16 9 29 14 29 10 0 -22 -66 -116 -100 -143 -25 -20 -39 -38 -35
-47 3 -8 0 -21 -7 -30 -11 -13 -9 -14 12 -7 28 8 84 40 115 64 11 9 8 2 -7
-14 -15 -17 -50 -44 -78 -60 -45 -27 -50 -33 -47 -60 4 -28 6 -30 43 -27 21 2
59 12 84 23 l45 19 -30 -25 c-16 -14 -56 -38 -87 -53 -52 -25 -57 -30 -57 -60
-1 -30 1 -32 27 -27 l27 6 -27 -16 c-23 -13 -28 -22 -28 -56 0 -40 1 -41 28
-36 l27 5 -27 -22 c-22 -17 -28 -30 -28 -59 0 -21 5 -37 11 -37 8 0 8 -4 2
-12 -12 -15 -25 -3128 -16 -3591 l6 -287 6824 0 6823 0 0 2558 c0 2486 -8
3357 -32 3707 -7 97 -12 409 -12 730 l-1 559 -42 30 c-41 28 -42 31 -26 48 16
18 14 21 -34 71 -64 65 -123 154 -124 187 0 14 -4 34 -8 45 -6 15 -9 11 -14
-20z m-112 -2777 c-28 -15 -75 -60 -75 -71 0 -10 99 -4 138 8 19 6 22 4 22
-19 0 -24 41 -76 60 -76 4 0 10 -52 14 -115 l7 -114 -39 -58 c-40 -58 -178
-201 -185 -192 -3 2 -8 15 -11 29 -6 19 -5 22 3 10 15 -20 7 93 -9 134 -6 17
-7 32 -2 35 5 3 -2 36 -16 74 -14 37 -26 66 -28 64 -6 -5 -26 -108 -29 -142
-1 -16 -9 -47 -18 -68 -9 -21 -13 -45 -10 -54 5 -13 2 -15 -13 -9 -10 4 -32
10 -49 13 -53 10 -67 22 -62 51 3 14 -3 45 -13 68 -12 26 -15 44 -8 46 6 2 1
30 -13 71 -24 68 -39 85 -39 45 0 -13 -5 -40 -11 -61 -9 -34 -12 -37 -37 -31
-69 17 -242 122 -242 147 0 8 3 8 8 -1 7 -9 13 -8 27 8 10 11 24 19 31 16 7
-3 15 2 18 10 3 8 1 14 -5 14 -6 0 -7 5 -3 11 5 8 9 7 14 -1 9 -15 41 -6 38
11 -2 6 3 14 11 17 8 3 11 0 7 -7 -8 -13 -4 -14 18 -5 9 3 16 12 16 20 0 16
26 19 35 4 4 -6 11 -8 16 -4 5 3 7 9 4 14 -3 5 0 12 6 16 6 3 15 1 19 -6 6 -9
11 -7 19 8 8 15 25 22 64 27 29 4 114 22 188 40 151 37 162 39 134 23z m-497
-553 c40 -10 72 -23 72 -29 -1 -6 -12 -36 -25 -66 -13 -30 -20 -56 -16 -58 9
-3 -43 -162 -74 -224 -29 -58 -30 -62 -10 -54 18 6 19 -2 2 -30 -9 -16 -17
-19 -32 -13 -17 6 -17 8 -2 8 30 2 18 29 -18 41 -19 6 -37 16 -40 21 -3 5 1 6
10 3 14 -6 14 -3 2 32 -8 22 -20 67 -26 102 -7 35 -15 70 -18 79 -4 10 -2 14
4 10 12 -7 10 66 -2 116 l-7 27 46 -6 c65 -9 59 25 -7 41 -25 7 -57 38 -57 57
0 4 29 -3 63 -16 35 -13 96 -32 135 -41z m-348 9 l98 -27 -24 -51 c-13 -28
-20 -52 -16 -54 16 -5 4 -78 -21 -135 -15 -32 -23 -65 -20 -74 5 -12 3 -14 -8
-8 -27 17 -118 85 -122 92 -3 5 -8 73 -12 152 -6 134 -6 143 10 137 10 -3 61
-18 115 -32z m680 -49 c0 -2 -13 -35 -30 -73 -16 -39 -27 -77 -24 -85 7 -20
-44 -53 -60 -37 -8 8 -7 9 7 4 17 -6 17 -4 3 32 -8 22 -17 57 -20 79 -3 22 -9
50 -12 63 -7 23 -5 23 65 21 39 -1 71 -3 71 -4z m-9107 -515 c9 0 17 6 17 13
0 10 18 10 85 3 47 -5 85 -13 85 -18 0 -14 37 -9 92 12 29 11 55 20 57 20 13
0 -71 -55 -114 -76 -46 -21 -58 -23 -127 -15 -79 9 -141 33 -193 75 l-30 24
55 -18 c30 -11 63 -19 73 -20z m6217 -1741 c30 -6 73 -9 95 -6 37 4 38 3 13
-6 -16 -6 -28 -14 -28 -19 0 -12 44 -9 135 7 43 8 80 13 82 12 4 -5 -119 -102
-150 -119 -61 -33 -145 -19 -204 32 l-36 32 89 -6 c71 -5 84 -4 64 5 -14 7
-58 27 -97 45 -75 34 -94 51 -45 40 15 -3 52 -11 82 -17z m-9433 -941 c-3 -51
-11 -107 -17 -125 l-11 -31 -41 44 c-23 25 -76 67 -119 95 -67 44 -109 84
-109 104 0 3 68 5 152 5 l151 0 -6 -92z"/>
</g>
</svg>
